<svg width="48" height="48" viewBox="0 0 48 48" fill="none" xmlns="http://www.w3.org/2000/svg">
<path d="M17.3367 36.8519C18.92 36.8519 20.2046 38.0049 20.2046 39.4259C20.2046 40.847 18.92 42 17.3367 42C15.7534 42 14.4688 40.847 14.4688 39.4259C14.4688 38.0049 15.7534 36.8519 17.3367 36.8519Z" fill="currentColor"/>
<path d="M30.7202 36.8519C32.3035 36.8519 33.5882 38.0049 33.5882 39.4259C33.5882 40.847 32.3036 42 30.7202 42C29.1369 42 27.8523 40.847 27.8523 39.4259C27.8523 38.0049 29.1369 36.8519 30.7202 36.8519Z" fill="currentColor"/>
<path d="M24.8448 21.1571C25.3337 21.1571 25.7114 21.3164 25.9781 21.6349C26.2447 21.946 26.378 22.3719 26.378 22.9126C26.378 23.4458 26.2447 23.8716 25.9781 24.1901C25.7114 24.5012 25.3337 24.6568 24.8448 24.6568C24.3486 24.6567 23.9672 24.5012 23.7006 24.1901C23.434 23.8716 23.3007 23.4458 23.3007 22.9126C23.3007 22.3719 23.434 21.946 23.7006 21.6349C23.9672 21.3164 24.3486 21.1571 24.8448 21.1571Z" fill="currentColor"/>
<path d="M16.9633 20.9904C17.4744 20.9904 17.73 21.2312 17.73 21.7126C17.73 22.194 17.4744 22.4348 16.9633 22.4348H16.2634V20.9904H16.9633Z" fill="currentColor"/>
<path fill-rule="evenodd" clip-rule="evenodd" d="M9.04373 13.6857C10.6629 13.6857 12.049 14.7261 12.3357 16.1525L12.3598 16.2598H37.0177C38.2186 16.2598 39.1208 17.2357 38.8997 18.2922L37.0475 27.1886C36.707 28.8135 35.1296 29.9879 33.2894 29.9879H15.15L15.4546 31.5055C15.5801 32.1168 16.1717 32.5618 16.8647 32.5618H32.1541C32.9488 32.5618 33.5882 33.1357 33.5882 33.8489C33.5882 34.5621 32.9488 35.1359 32.1541 35.1359H16.8647C14.7855 35.1359 13.005 33.8006 12.6345 31.9666L9.52165 16.6136C9.47981 16.4099 9.28267 16.2598 9.0497 16.2598H6.34302C5.54841 16.2597 4.90914 15.6859 4.90912 14.9727C4.90912 14.2595 5.54839 13.6857 6.34302 13.6857H9.04373ZM24.8448 18.8797C24.1042 18.8797 23.4228 19.0537 22.8006 19.4018C22.1859 19.7425 21.6971 20.2203 21.3342 20.835C20.9713 21.4498 20.7898 22.1423 20.7898 22.9126C20.7898 23.6828 20.9713 24.3754 21.3342 24.9901C21.6971 25.6048 22.1859 26.0862 22.8006 26.4343C23.4228 26.7824 24.1042 26.9564 24.8448 26.9564C25.5781 26.9564 26.2522 26.7824 26.8669 26.4343C27.489 26.0862 27.9778 25.6048 28.3334 24.9901C28.6963 24.3754 28.8777 23.6828 28.8777 22.9126C28.8777 22.1423 28.6963 21.4497 28.3334 20.835C27.9778 20.2203 27.4928 19.7425 26.878 19.4018C26.2633 19.0537 25.5855 18.8797 24.8448 18.8797ZM32.5561 18.8797C31.9858 18.8797 31.471 18.9722 31.0118 19.1574C30.56 19.3426 30.2008 19.6166 29.9342 19.9795C29.675 20.335 29.5454 20.7683 29.5454 21.2793C29.538 21.7903 29.6527 22.2088 29.8897 22.5347C30.1267 22.8606 30.4082 23.1088 30.7341 23.2791C31.0674 23.4495 31.4859 23.6235 31.9895 23.8013C32.4117 23.9494 32.7227 24.0827 32.9227 24.2012C33.1227 24.3123 33.2227 24.4605 33.2227 24.6456C33.2227 24.7789 33.1745 24.879 33.0783 24.9456C32.9894 25.0049 32.8783 25.0344 32.745 25.0344C32.3821 25.0344 32.1821 24.8086 32.1451 24.3568H29.5231C29.575 25.2085 29.9046 25.8566 30.5119 26.301C31.1267 26.738 31.9044 26.9564 32.845 26.9564C33.4671 26.9564 34.0041 26.8491 34.4559 26.6343C34.9077 26.4196 35.2521 26.1232 35.4892 25.7455C35.7261 25.3604 35.8446 24.9271 35.8446 24.4457C35.8446 23.9865 35.7261 23.605 35.4892 23.3014C35.2521 22.9977 34.9707 22.7607 34.6448 22.5903C34.3263 22.42 33.9189 22.2422 33.4227 22.0571C32.9931 21.8941 32.6783 21.7571 32.4783 21.646C32.2857 21.5275 32.1895 21.3793 32.1895 21.2016C32.1895 21.0757 32.2228 20.9794 32.2895 20.9127C32.3562 20.8387 32.4413 20.8016 32.545 20.8016C32.6931 20.8016 32.819 20.8498 32.9227 20.9461C33.0264 21.0424 33.082 21.2016 33.0894 21.4237H35.7447C35.715 20.6164 35.415 19.9906 34.8447 19.5462C34.2818 19.1018 33.519 18.8797 32.5561 18.8797ZM13.797 19.013V26.8787H16.2634V24.379H17.2411C17.8781 24.379 18.4188 24.2606 18.8632 24.0235C19.315 23.7865 19.6556 23.4679 19.8852 23.068C20.1148 22.6606 20.2297 22.2088 20.2297 21.7126C20.2297 20.8905 19.9704 20.235 19.4519 19.7461C18.9409 19.2573 18.2039 19.013 17.2411 19.013H13.797Z" fill="currentColor"/>
<path d="M17.6511 13.7746C17.177 13.7746 16.7356 13.6976 16.3268 13.5435C15.9238 13.3835 15.5713 13.1613 15.2691 12.8769C14.9728 12.5866 14.7418 12.2459 14.5758 11.8548C14.4099 11.4637 14.327 11.0371 14.327 10.5749C14.327 10.1128 14.4099 9.68615 14.5758 9.29509C14.7418 8.90402 14.9758 8.56628 15.278 8.28186C15.5802 7.99152 15.9327 7.76933 16.3357 7.61527C16.7386 7.45529 17.18 7.37529 17.66 7.37529C18.1695 7.37529 18.6347 7.46417 19.0554 7.64193C19.4761 7.81377 19.8316 8.07152 20.1219 8.41518L19.3753 9.11733C19.1502 8.87439 18.8983 8.69367 18.6198 8.57516C18.3414 8.45073 18.0392 8.38852 17.7133 8.38852C17.3874 8.38852 17.0882 8.44185 16.8156 8.5485C16.549 8.65516 16.3149 8.80625 16.1135 9.00179C15.9179 9.19732 15.7639 9.42841 15.6513 9.69504C15.5446 9.96168 15.4913 10.255 15.4913 10.5749C15.4913 10.8949 15.5446 11.1882 15.6513 11.4549C15.7639 11.7215 15.9179 11.9526 16.1135 12.1481C16.3149 12.3436 16.549 12.4947 16.8156 12.6014C17.0882 12.708 17.3874 12.7614 17.7133 12.7614C18.0392 12.7614 18.3414 12.7021 18.6198 12.5836C18.8983 12.4592 19.1502 12.2725 19.3753 12.0237L20.1219 12.7347C19.8316 13.0725 19.4761 13.3302 19.0554 13.508C18.6347 13.6857 18.1666 13.7746 17.6511 13.7746Z" fill="currentColor"/>
<path d="M23.0732 13.7479C22.5873 13.7479 22.1548 13.6442 21.7755 13.4369C21.3963 13.2235 21.0971 12.9332 20.8779 12.5658C20.6586 12.1985 20.549 11.7807 20.549 11.3126C20.549 10.8386 20.6586 10.4209 20.8779 10.0594C21.0971 9.69208 21.3963 9.4047 21.7755 9.19732C22.1548 8.98993 22.5873 8.88624 23.0732 8.88624C23.565 8.88624 24.0005 8.98993 24.3797 9.19732C24.7649 9.4047 25.0641 9.68912 25.2774 10.0506C25.4966 10.412 25.6062 10.8327 25.6062 11.3126C25.6062 11.7807 25.4966 12.1985 25.2774 12.5658C25.0641 12.9332 24.7649 13.2235 24.3797 13.4369C24.0005 13.6442 23.565 13.7479 23.0732 13.7479ZM23.0732 12.7969C23.3457 12.7969 23.5887 12.7377 23.802 12.6192C24.0153 12.5007 24.1812 12.3288 24.2997 12.1037C24.4241 11.8785 24.4864 11.6148 24.4864 11.3126C24.4864 11.0045 24.4241 10.7409 24.2997 10.5216C24.1812 10.2965 24.0153 10.1246 23.802 10.0061C23.5887 9.88761 23.3487 9.82836 23.0821 9.82836C22.8095 9.82836 22.5666 9.88761 22.3533 10.0061C22.1459 10.1246 21.98 10.2965 21.8555 10.5216C21.7311 10.7409 21.6689 11.0045 21.6689 11.3126C21.6689 11.6148 21.7311 11.8785 21.8555 12.1037C21.98 12.3288 22.1459 12.5007 22.3533 12.6192C22.5666 12.7377 22.8065 12.7969 23.0732 12.7969Z" fill="currentColor"/>
<path d="M28.8017 13.7479C28.3159 13.7479 27.8833 13.6442 27.5041 13.4369C27.1249 13.2235 26.8256 12.9332 26.6064 12.5658C26.3872 12.1985 26.2776 11.7807 26.2776 11.3126C26.2776 10.8386 26.3872 10.4209 26.6064 10.0594C26.8256 9.69208 27.1249 9.4047 27.5041 9.19732C27.8833 8.98993 28.3159 8.88624 28.8017 8.88624C29.2935 8.88624 29.729 8.98993 30.1083 9.19732C30.4934 9.4047 30.7926 9.68912 31.0059 10.0506C31.2252 10.412 31.3348 10.8327 31.3348 11.3126C31.3348 11.7807 31.2252 12.1985 31.0059 12.5658C30.7926 12.9332 30.4934 13.2235 30.1083 13.4369C29.729 13.6442 29.2935 13.7479 28.8017 13.7479ZM28.8017 12.7969C29.0743 12.7969 29.3172 12.7377 29.5305 12.6192C29.7438 12.5007 29.9098 12.3288 30.0283 12.1037C30.1527 11.8785 30.2149 11.6148 30.2149 11.3126C30.2149 11.0045 30.1527 10.7409 30.0283 10.5216C29.9098 10.2965 29.7438 10.1246 29.5305 10.0061C29.3172 9.88761 29.0773 9.82836 28.8106 9.82836C28.5381 9.82836 28.2951 9.88761 28.0818 10.0061C27.8744 10.1246 27.7085 10.2965 27.5841 10.5216C27.4596 10.7409 27.3974 11.0045 27.3974 11.3126C27.3974 11.6148 27.4596 11.8785 27.5841 12.1037C27.7085 12.3288 27.8744 12.5007 28.0818 12.6192C28.2951 12.7377 28.5351 12.7969 28.8017 12.7969Z" fill="currentColor"/>
<path d="M32.3972 13.6857V7.09088H33.5082V13.6857H32.3972Z" fill="currentColor"/>
</svg>
